<svg id="Layer_1" data-name="Layer 1" xmlns="http://www.w3.org/2000/svg" viewBox="0 0 343.11 246.47"><defs><style>.cls-1{fill:#12a2dd;}.cls-1,.cls-2{stroke:#231f20;stroke-linecap:round;stroke-miterlimit:10;}.cls-2{fill:#013e5c;}</style></defs><title>mjj</title><path class="cls-1" d="M345,126.05c-94.47,0-171.05,47.6-171.05,106.32,0,27.07,16.28,51.76,43.08,70.53l-28.34,68.21L285.42,332A265.41,265.41,0,0,0,345,338.69c94.47,0,171.05-47.6,171.05-106.32S439.52,126.05,345,126.05Z" transform="translate(-173.5 -125.55)"/><path class="cls-2" d="M345,138.34c-85,0-153.9,42.83-153.9,95.65,0,24.35,14.65,46.57,38.76,63.46l-25.5,61.37,87-35.15a238.79,238.79,0,0,0,53.65,6c85,0,153.9-42.83,153.9-95.65S430,138.34,345,138.34Z" transform="translate(-173.5 -125.55)"/></svg>